<mxfile host="app.diagrams.net" modified="2023-03-19T11:03:58.373Z" agent="5.0 (Macintosh; Intel Mac OS X 10_15_7) AppleWebKit/537.36 (KHTML, like Gecko) Chrome/111.0.0.0 Safari/537.36" etag="1jYIuj58BORTIdAsbjFQ" version="21.0.8" type="github">
  <diagram name="페이지-1" id="RfBkxJ_Ci9y4_1ojqtZy">
    <mxGraphModel dx="739" dy="568" grid="1" gridSize="10" guides="1" tooltips="1" connect="1" arrows="1" fold="1" page="1" pageScale="1" pageWidth="827" pageHeight="1169" math="0" shadow="0">
      <root>
        <mxCell id="0" />
        <mxCell id="1" parent="0" />
        <mxCell id="xdS8_57yalIHgubX4K7i-1" value="Actor" style="shape=umlActor;verticalLabelPosition=bottom;verticalAlign=top;html=1;outlineConnect=0;" vertex="1" parent="1">
          <mxGeometry x="60" y="40" width="30" height="60" as="geometry" />
        </mxCell>
        <mxCell id="xdS8_57yalIHgubX4K7i-2" value="" style="whiteSpace=wrap;html=1;aspect=fixed;" vertex="1" parent="1">
          <mxGeometry x="160" y="40" width="490" height="490" as="geometry" />
        </mxCell>
      </root>
    </mxGraphModel>
  </diagram>
</mxfile>
